<?xml version="1.0" standalone="no"?><!DOCTYPE svg PUBLIC "-//W3C//DTD SVG 1.1//EN" "http://www.w3.org/Graphics/SVG/1.1/DTD/svg11.dtd"><svg t="1781380006503" class="icon" viewBox="0 0 1024 1024" version="1.1" xmlns="http://www.w3.org/2000/svg" p-id="4619" xmlns:xlink="http://www.w3.org/1999/xlink" width="200" height="200"><path d="M167.52 556.23L351.2 572.7c0.06 0.73 0.14 1.46 0.19 2.18l0.02 0.19c0.16 1.6 0.28 3.2 0.41 4.85 0.31 3.68 0.58 7.33 0.84 10.94l0.03 0.42c0.1 1.49 0.2 2.99 0.3 4.56 0.11 1.68 0.22 3.36 0.3 5.02v0.22c0.07 0.9 0.12 1.8 0.17 2.7l0.08 1.47c0.21 3.98 0.39 7.94 0.53 11.88 0.11 2.76 0.19 5.48 0.27 8.2 0.03 1.11 0.06 2.21 0.08 3.3v0.19c0.03 0.82 0.05 1.64 0.06 2.47v0.34c0.05 1.87 0.09 3.72 0.1 5.61l0.03 3.57c0.11 17.07-0.39 32.22-1.5 45.02l-0.93 10.63c-0.61 6.67-0.2 13.33 1.13 19.77-8.81 4.12-18.78 5.42-28.78 3.46-9.06-1.77-17.41-6.33-23.88-12.9-9.79-9.94-14.49-23.14-13.22-37l0.91-10.66c0.6-6.96 1.22-12.01 1.76-16.46 1.35-11.06 2.24-18.34 1.01-39-0.35-5.93-5.49-10.43-11.4-9.97-5.78 0.44-10.13 5.45-9.78 11.24 1.12 18.61 0.39 24.64-0.9 35.16-0.57 4.63-1.21 9.87-1.84 17.21l-0.91 10.6c-1.74 18.91 4.59 37.8 17.39 51.83 3.16 3.47 6.66 6.57 10.41 9.27 1.32 31.74 23.12 56.47 49.98 56.47h43.1c8.76 17.18 24.62 28.53 42.82 28.53h51.53c6.54 0 11.84-5.3 11.84-11.84 0-4.74-2.9-9.09-7.38-10.66-12.33-4.33-21.45-19.26-21.45-36.96v-1.22c11.01-9.77 18.6-22.95 21.48-37.37l0.19-0.93c6.06-30.44 9.4-74.98 9.15-122.19v-0.41c-0.02-2.72-0.04-5.45-0.08-8.13-0.09-7.16-0.29-14.58-0.58-22.05-0.08-2.18-0.16-4.36-0.28-6.53-0.05-1.41-0.12-2.81-0.2-4.1-0.07-1.4-0.14-2.8-0.21-4.1-0.08-1.58-0.17-3.16-0.27-4.68-0.13-2.12-0.28-4.22-0.42-6.32-0.02-0.41-0.06-0.84-0.1-1.25-0.17-2.43-0.34-4.84-0.54-7.14-0.04-0.51-0.08-1.01-0.13-1.51-0.12-1.53-0.25-3.04-0.39-4.4-0.17-2.01-0.36-4-0.56-5.98l-0.03-0.25-0.06-0.62c-0.58-5.77-1.22-11.33-1.92-16.67 27.22 9.42 83.85 25.66 150.85 25.66 16.47 0 33.57-0.98 51-3.29 0 0.16 0 0.33-0.01 0.49-0.42 19.86 0.11 40.4 1.51 60.49L533.2 567.73a10.616 10.616 0 0 0-11.52 9.62c-0.52 5.84 3.78 11 9.62 11.52l81.49 7.31c8.12 36.7 18.66 68.49 29.93 90.14l22.52 43.21c4.88 9.39 12.1 17.08 20.65 22.62 6.14 27.08 27.03 46.11 50.4 46.11 1.78 0 3.57-0.11 5.37-0.33l19.1-2.38c9.11 11.42 22.02 18.48 36.37 18.48h51.53c6.54 0 11.84-5.3 11.84-11.84 0-4.74-2.9-9.09-7.38-10.66-12.33-4.33-21.45-19.26-21.45-36.96v-0.07c0.9-1.08 1.78-2.18 2.61-3.33 11.56-15.93 14.8-36.58 8.69-55.17l-0.42-1.3c-5.1-16.22-7.62-47.8-7.5-78.58l38.21 3.42c5.84 0.52 11-3.79 11.52-9.63 0.52-5.84-3.79-11-9.63-11.52l-39.58-3.54c0.9-19.35 2.95-36.74 6.17-47.62 0.85-2.86 1.71-5.78 2.57-8.75l35.91 3.22c5.84 0.52 11-3.79 11.52-9.63 0.52-5.84-3.79-11-9.63-11.52l-31.93-2.86c10.85-39.51 20.91-83.3 20.91-109.8v-31.78c0-47.56-18.52-92.28-52.16-125.93-33.65-33.63-78.37-52.15-125.92-52.15h-0.54c-4.16 0.23-102.33 5.35-151.46 16.09l-22.42 3.96c-43.97 7.78-96.13 5.76-155.05-6-12.19-2.43-24.88-4.3-37.73-5.56a407.983 407.983 0 0 0-38.05-1.89c-82.62 0-149.84 62.39-149.84 139.08 0 1.26 0.02 2.52 0.05 3.83v0.23l0.12 2.83c0.16 3.02 0.43 6.08 0.79 9.02 0.14 1.22 0.32 2.43 0.5 3.61 0.19 1.32 0.41 2.63 0.65 3.93 0.1 0.58 0.21 1.16 0.32 1.74l0.03 0.18c0.11 0.57 0.24 1.14 0.37 1.7 0.13 0.66 0.27 1.32 0.44 1.98 0.66 2.9 1.42 5.78 2.25 8.49 0.23 0.79 0.48 1.57 0.72 2.33 0.31 0.98 0.63 1.95 0.93 2.77 1.42 4.1 3.06 8.18 4.89 12.12 0.31 0.72 0.64 1.41 0.99 2.11 1.93 3.99 4.05 7.88 6.24 11.45 0.44 0.73 0.89 1.45 1.4 2.26 2.28 3.62 4.81 7.2 7.52 10.66 0.48 0.65 0.98 1.28 1.45 1.85 3.42 4.25 7.09 8.32 10.86 12.04 0.58 0.58 1.19 1.17 1.69 1.64 2.01 1.94 4.16 3.88 6.27 5.67 0.65 0.57 1.32 1.14 2 1.68 0.2 0.18 0.41 0.35 0.62 0.51 0.6 0.5 1.21 0.99 1.83 1.47 1.54 1.22 3.18 2.46 4.96 3.75 0.88 0.64 1.77 1.26 2.61 1.83 0.72 0.5 1.45 1 2.08 1.41 0.71 0.48 1.42 0.96 2.15 1.4 0.74 0.49 1.5 0.97 2.26 1.43 0.14 0.08 0.28 0.16 0.42 0.25l-28.98-2.6c-5.84-0.52-11 3.79-11.52 9.63-0.52 5.84 3.79 11 9.63 11.52l165.02 14.79c0.16 0.71 0.31 1.43 0.48 2.16 0.2 0.88 0.38 1.78 0.57 2.68l0.21 1.04c0.17 0.79 0.32 1.57 0.48 2.36l0.05 0.27c0.36 1.78 0.71 3.57 1.05 5.41l0.1 0.53c0.13 0.71 0.27 1.41 0.39 2.13l0.08 0.39c0.03 0.12 0.05 0.24 0.07 0.36l0.07 0.4c0.18 0.95 0.35 1.93 0.52 2.96l0.92 5.33c0.24 1.44 0.47 2.89 0.71 4.43 0.32 2.06 0.65 4.12 0.95 6.2 0.43 2.93 0.85 5.88 1.25 8.79l0.03 0.2c0.22 1.65 0.43 3.28 0.63 4.93l0.03 0.19c0.17 1.2 0.32 2.4 0.46 3.6l0.05 0.36c0.04 0.3 0.08 0.61 0.11 0.92l0.27 2.35-179.55-16.1c-5.84-0.52-11 3.78-11.52 9.62-0.52 5.83 3.79 10.99 9.63 11.52z m176.54 208.01c-12.04 0-22.61-10.24-26.85-24.49a67.429 67.429 0 0 0 16.49 2.07c9.42 0 18.61-1.94 27.1-5.66 2.46 4.32 5.39 8.4 8.79 12.13 3.16 3.46 6.65 6.56 10.4 9.26 0.09 2.27 0.3 4.5 0.59 6.69h-36.53z m85.92 28.53c-12.04 0-22.61-10.23-26.84-24.47a67.348 67.348 0 0 0 16.48 2.07c8.44 0 16.78-1.61 24.57-4.65 1.63 10.17 5.45 19.43 10.85 27.05h-25.06z m254.1-73.07l-22.52-43.21c-9.78-18.78-19.06-46.24-26.54-78.34l59.76 5.36c0.1 0.92 0.18 1.86 0.28 2.77 0.16 1.53 0.33 3.04 0.51 4.57l0.07 0.62c0.28 2.39 0.57 4.75 0.88 7.1l0.07 0.55c0.21 1.66 0.44 3.29 0.69 5.08 0.23 1.67 0.48 3.35 0.73 5.04 0.25 1.66 0.5 3.3 0.79 5.04l0.38 2.33c0.27 1.63 0.56 3.26 0.84 4.84 0.29 1.62 0.57 3.22 0.88 4.8 0.6 3.15 1.22 6.26 1.87 9.26 0.3 1.45 0.62 2.86 0.95 4.27l0.06 0.28c0.33 1.49 0.69 2.97 1.04 4.41 0.17 0.73 0.35 1.45 0.54 2.21 0.37 1.51 0.76 3 1.14 4.38 1.94 7.24 4.05 13.95 6.28 19.97l17 45.66c0.26 0.71 0.58 1.39 0.87 2.09-2.19 0.7-4.46 1.22-6.8 1.54l-0.42 0.05c-16.06 2-31.87-6.31-39.33-20.66z m54.97 57.13c-10.2 1.27-20.25-4.99-26.69-15.32 2.1 0.22 4.2 0.37 6.33 0.37s4.43-0.12 6.65-0.37l0.71-0.08c5.75-0.72 11.25-2.21 16.43-4.45 1.58 1.66 3.24 3.23 4.99 4.7 0.48 4.79 1.42 9.4 2.79 13.76l-11.21 1.4z m58.11 15.94c-10.27 0-19.47-7.45-24.58-18.48 4.35 1.02 8.84 1.57 13.42 1.58h0.15c9.22 0 18.06-2.1 26.02-6 1.92 8.54 5.4 16.33 10.05 22.9h-25.06zM166.85 381c0 1.01 0.06 2.01 0.09 3.01-0.62-1.56-1.22-3.13-1.78-4.75-0.24-0.67-0.47-1.36-0.7-2.09-0.21-0.65-0.41-1.3-0.63-2.04-0.71-2.35-1.36-4.77-1.91-7.21l-0.08-0.33c-0.09-0.35-0.16-0.71-0.24-1.14l-0.06-0.26c-0.09-0.4-0.18-0.8-0.25-1.18l-0.03-0.16c-0.08-0.44-0.17-0.89-0.24-1.33l-0.05-0.27c-0.2-1.04-0.37-2.1-0.53-3.18-0.15-0.98-0.3-1.97-0.42-3.03-0.31-2.51-0.54-5.06-0.67-7.57-0.04-0.81-0.07-1.63-0.1-2.46v-0.16a83.45 83.45 0 0 1-0.05-3.17c0-64.98 57.7-117.85 128.57-117.85 12.11 0.05 24.24 0.65 36.03 1.79 12.14 1.19 24.13 2.96 35.64 5.25 61.51 12.28 116.32 14.33 162.9 6.09l22.64-4 0.43-0.09c46.13-10.13 142.12-15.34 147.94-15.64 41.78 0.07 81.07 16.38 110.64 45.93 29.62 29.64 45.94 69.03 45.94 110.92v31.78c0 24.06-10.12 71.41-28.49 133.3-10.52 35.49-10.01 125.13 0.92 159.94l0.46 1.43c4.07 12.37 2 25.55-5.68 36.13-7.37 10.15-18.65 15.97-30.99 15.97h-0.09c-16.13-0.04-30.75-10.23-36.38-25.36l-17-45.65c-2-5.39-3.91-11.46-5.7-18.15-0.35-1.26-0.68-2.54-1-3.84l-0.06-0.24c-0.14-0.56-0.29-1.13-0.42-1.71l-0.04-0.17c-0.24-0.98-0.48-1.97-0.71-2.97l-0.28-1.26c-0.32-1.37-0.63-2.74-0.93-4.18-0.62-2.9-1.21-5.86-1.78-8.85-0.29-1.49-0.55-2.99-0.83-4.53-0.27-1.51-0.54-3.04-0.78-4.53l-0.4-2.45c-0.25-1.56-0.49-3.12-0.73-4.67-0.24-1.6-0.48-3.22-0.72-4.96-0.19-1.34-0.37-2.67-0.55-4.02l-0.09-0.72c-0.3-2.24-0.58-4.49-0.84-6.77l-0.07-0.63c-0.19-1.63-0.38-3.27-0.56-4.95-2.88-26.62-4.09-54.99-3.52-82.08 0.03-1.83 0.08-3.65 0.14-5.47v-0.28c0.07-1.94 0.13-3.88 0.23-5.87 0.89-21.46 3.01-40.75 6.11-55.78l10.45-50.6c1.19-5.74-2.51-11.36-8.25-12.54-5.74-1.19-11.35 2.51-12.54 8.25l-3.28 15.89c-13.93-23.48-32.85-34.65-45.03-39.7-4.46-1.85-11.3-3.48-17.14-4.67-6.02-1.23-11.83 2.84-12.68 8.93a10.6 10.6 0 0 0 8.4 11.87c4.81 0.97 10.22 2.22 13.28 3.49 15.9 6.6 36.53 21.89 45.52 57.2-2.59 13.29-4.48 29.29-5.54 46.83-96.43 13.78-185.07-16.66-206.6-24.86l-0.18-0.93c-0.35-1.71-0.7-3.39-1.06-5.1-0.52-2.38-0.78-4.81-0.78-7.22 0-7.39 2.48-14.71 6.99-20.6l8.33-10.87c3.57-4.65 2.68-11.32-1.97-14.88-4.65-3.57-11.31-2.69-14.88 1.96l-8.33 10.87c-7.32 9.58-11.36 21.48-11.36 33.51 0 3.94 0.43 7.89 1.26 11.69 0.34 1.59 0.67 3.21 1 4.81 2.27 11.47 4.18 24.82 5.66 39.68l0.03 0.31 0.06 0.58c0.19 1.82 0.36 3.66 0.53 5.67 0.14 1.41 0.26 2.83 0.37 4.26l0.04 0.38c0.03 0.3 0.05 0.59 0.08 1.03 0.19 2.32 0.37 4.66 0.53 7.03l0.02 0.26c0.02 0.18 0.04 0.37 0.05 0.55v0.24c0.16 2.08 0.31 4.16 0.44 6.29 0.1 1.48 0.17 2.97 0.26 4.54 0.08 1.3 0.14 2.61 0.21 4.04 0.08 1.27 0.14 2.55 0.18 3.82v0.18c0.12 2.08 0.2 4.18 0.28 6.29 0.28 7.3 0.47 14.54 0.57 21.56 0.05 2.65 0.06 5.3 0.08 7.93v0.39c0.24 45.84-2.95 88.83-8.73 117.87l-0.19 0.93a46.637 46.637 0 0 1-16.09 26.84c-8.3 6.8-18.77 10.55-29.48 10.55-13.22 0-25.41-5.38-34.33-15.15-8.92-9.77-13.16-22.41-11.95-35.63l0.93-10.69c1.16-13.45 1.69-29.26 1.57-47.07l-0.03-3.58c-0.02-1.95-0.05-3.92-0.1-5.84v-0.26c-0.02-0.9-0.04-1.79-0.07-2.69-0.02-1.16-0.05-2.32-0.08-3.51-0.08-2.8-0.17-5.6-0.28-8.4-0.15-4.01-0.33-8.08-0.55-12.21l-0.08-1.42c-0.05-0.97-0.1-1.95-0.17-2.91-0.08-1.76-0.2-3.53-0.31-5.24-0.09-1.56-0.2-3.12-0.31-4.68l-0.03-0.44c-0.26-3.74-0.55-7.47-0.85-11.19-0.13-1.7-0.27-3.4-0.43-5.1-0.17-2.08-0.36-4.17-0.56-6.29-0.3-3.11-0.61-6.23-0.95-9.39l-1.24-10.87c-0.06-0.53-0.12-1.05-0.19-1.56-0.15-1.29-0.31-2.59-0.49-3.88-0.2-1.69-0.42-3.36-0.65-5.04l-0.03-0.24c-0.41-3.05-0.84-6.08-1.29-9.09-0.32-2.14-0.65-4.26-0.97-6.31-0.24-1.57-0.49-3.12-0.75-4.73l-0.92-5.39c-0.18-1.08-0.37-2.15-0.57-3.2-0.06-0.38-0.13-0.76-0.21-1.13-0.13-0.77-0.28-1.53-0.42-2.29l-0.09-0.47c-0.35-1.92-0.73-3.83-1.1-5.68l-0.04-0.21c-0.18-0.9-0.36-1.8-0.53-2.6l-0.2-1c-0.21-1.02-0.42-2.03-0.63-2.97-0.31-1.44-0.63-2.86-0.91-4.13-0.07-0.35-0.15-0.69-0.23-1.03l-0.18-0.8c-0.29-1.26-0.58-2.51-0.87-3.67-1.13-4.73-2.34-9.29-3.59-13.69 32.41-18.68 53.8-50.46 53.8-86.46 0-1.87-0.08-3.73-0.2-5.6 0.13-3.37-0.21-6.81-1.09-10.2l-0.37-1.44c-0.87-4.62-2.09-9.19-3.58-13.68-0.3-1-0.63-1.98-1.01-2.93-11.73-32.26-38.23-59-64.36-60.07-11.06-0.44-18.85 3.61-25.73 7.2-6.9 3.6-12.87 6.71-23.3 6.71h-0.24c-10.69-0.05-16.72-3.3-23.71-7.07-6.64-3.58-14.13-7.62-24.63-7.62-0.36 0-0.72 0-1.09 0.01-35.94 0.93-72.57 48.72-72.57 94.68z m210.77-3.88c-1.86-3.84-6.11-6.12-10.34-5.55-5.59 0.75-9.21 5.67-8.79 10.83l-5.69-2.39c-4.65-1.95-8.16-6.16-8.72-11.18-0.64-5.61 1.93-10.68 6.75-13.46l12.42-7.15c2.12-1.22 4.46-1.84 6.81-1.84s4.7 0.61 6.86 1.84c3.3 1.88 5.55 5.17 6.5 8.84l2.96 11.44c0.4 2.27 0.7 4.55 0.89 6.83-0.33 3.4-1.91 6.56-4.65 8.93-1.7 1.47-3.63 2.44-5.66 2.95 1.91-2.85 2.36-6.63 0.67-10.1z m-188.06-7.05l3.48-13.44c0-1.27 0.38-2.52 1.12-3.55 3.19-4.5 7.68-6.7 12.13-6.7 2.35 0 4.69 0.62 6.81 1.84l12 6.91c4.38 2.52 7.32 7.13 7.26 12.18-0.07 5.64-3.25 10.36-8.38 12.51l-4.75 1.99c0.04-1.95-0.46-3.97-1.71-5.85-2.05-3.1-5.78-4.85-9.48-4.42-6.48 0.76-10.39 7.08-8.57 13.01 0.33 1.09 0.85 2.08 1.48 2.96-2.8-0.35-5.48-1.57-7.71-3.68-3.69-3.49-4.97-8.85-3.7-13.76z m104.07 47.39c-1.92 2.52-4.48 2.9-5.84 2.9s-3.92-0.38-5.84-2.89c-2.49-3.27-1.34-6.48-0.74-7.71s2.47-4.08 6.58-4.08 5.97 2.85 6.58 4.08 1.75 4.44-0.74 7.71z m4.78 45.84v-23.74c4.73-1.88 8.92-5.03 12.12-9.23 7.23-9.49 7.88-22.31 1.39-32.63-4.66-7.41-12.65-12.32-21.37-13.13-12.98-1.21-24.87 6.18-29.51 18.38-3.11 8.18-2.24 17.5 2.35 24.95 3.35 5.43 8.18 9.42 13.78 11.65v21.58c-7.58-0.57-15.07-1.74-22.37-3.51l-0.23-0.05c-0.49-0.11-0.98-0.23-1.46-0.36l-0.41-0.1c-0.28-0.07-0.57-0.13-0.84-0.22l-0.44-0.13c-2.56-0.68-5.16-1.46-7.73-2.33l-0.21-0.07c-0.75-0.24-1.48-0.5-2.24-0.77-0.64-0.23-1.27-0.46-2.06-0.76l-0.27-0.1c-0.51-0.19-1.03-0.38-1.53-0.59l-0.3-0.12c-0.66-0.25-1.33-0.52-2.02-0.81-19.32-10.03-34.21-25.4-41.68-43.6 3 0.83 6.1 1.26 9.22 1.26 4.56 0 9.17-0.9 13.57-2.75l15.3-6.42c11.6-4.87 20.15-15.36 21.79-27.83 1.87-14.25-4.89-27.81-17.17-34.89l-12.42-7.15a35.057 35.057 0 0 0-13.57-4.47c9.37-10.67 20.31-17.57 29.85-17.82h0.55c4.89 0 8.41 1.77 14.54 5.07 7.88 4.25 17.69 9.54 33.69 9.61h0.34c15.64 0 25.33-5.05 33.12-9.12 6.34-3.31 9.88-5.02 15.04-4.81 9.03 0.37 19.34 6.98 28.27 17.15-4.46 0.59-8.82 2.05-12.87 4.38l-11.76 6.77c-10.9 6.28-18.07 17.76-18.14 30.34-0.08 14.37 8.32 26.98 21.4 32.47l16.01 6.72c4.4 1.85 9.01 2.75 13.57 2.75 2.83 0 5.64-0.37 8.39-1.06-12.35 29.85-44.69 52.04-83.71 55.49z" p-id="4620" fill="#ffffff"></path></svg>